%TF.GenerationSoftware,KiCad,Pcbnew,10.0.3*%
%TF.CreationDate,2026-07-11T09:47:15+05:30*%
%TF.ProjectId,Custom Tablet,43757374-6f6d-4205-9461-626c65742e6b,rev?*%
%TF.SameCoordinates,Original*%
%TF.FileFunction,Paste,Top*%
%TF.FilePolarity,Positive*%
%FSLAX46Y46*%
G04 Gerber Fmt 4.6, Leading zero omitted, Abs format (unit mm)*
G04 Created by KiCad (PCBNEW 10.0.3) date 2026-07-11 09:47:15*
%MOMM*%
%LPD*%
G01*
G04 APERTURE LIST*
G04 Aperture macros list*
%AMRoundRect*
0 Rectangle with rounded corners*
0 $1 Rounding radius*
0 $2 $3 $4 $5 $6 $7 $8 $9 X,Y pos of 4 corners*
0 Add a 4 corners polygon primitive as box body*
4,1,4,$2,$3,$4,$5,$6,$7,$8,$9,$2,$3,0*
0 Add four circle primitives for the rounded corners*
1,1,$1+$1,$2,$3*
1,1,$1+$1,$4,$5*
1,1,$1+$1,$6,$7*
1,1,$1+$1,$8,$9*
0 Add four rect primitives between the rounded corners*
20,1,$1+$1,$2,$3,$4,$5,0*
20,1,$1+$1,$4,$5,$6,$7,0*
20,1,$1+$1,$6,$7,$8,$9,0*
20,1,$1+$1,$8,$9,$2,$3,0*%
%AMFreePoly0*
4,1,122,0.608000,0.599000,0.610000,0.599000,0.613000,0.598000,0.615000,0.598000,0.618000,0.597000,0.620000,0.596000,0.623000,0.595000,0.625000,0.593000,0.627000,0.592000,0.629000,0.590000,0.631000,0.589000,0.639000,0.581000,0.640000,0.579000,0.642000,0.577000,0.643000,0.575000,0.645000,0.573000,0.646000,0.570000,0.647000,0.568000,0.648000,0.565000,0.648000,0.563000,
0.649000,0.560000,0.649000,0.558000,0.650000,0.555000,0.650000,-0.055000,0.649000,-0.058000,0.649000,-0.060000,0.648000,-0.063000,0.648000,-0.065000,0.647000,-0.068000,0.646000,-0.070000,0.645000,-0.073000,0.643000,-0.075000,0.642000,-0.077000,0.640000,-0.079000,0.639000,-0.081000,0.631000,-0.089000,0.629000,-0.090000,0.627000,-0.092000,0.625000,-0.093000,0.623000,-0.095000,
0.620000,-0.096000,0.618000,-0.097000,0.615000,-0.098000,0.613000,-0.098000,0.610000,-0.099000,0.608000,-0.099000,0.605000,-0.100000,-0.255000,-0.100000,-0.258000,-0.099000,-0.260000,-0.099000,-0.263000,-0.098000,-0.265000,-0.098000,-0.268000,-0.097000,-0.270000,-0.096000,-0.273000,-0.095000,-0.275000,-0.093000,-0.277000,-0.092000,-0.279000,-0.090000,-0.281000,-0.089000,-0.289000,-0.081000,
-0.290000,-0.079000,-0.292000,-0.077000,-0.293000,-0.075000,-0.295000,-0.073000,-0.296000,-0.070000,-0.297000,-0.068000,-0.298000,-0.065000,-0.298000,-0.063000,-0.299000,-0.060000,-0.299000,-0.058000,-0.300000,-0.055000,-0.300000,0.055000,-0.299000,0.058000,-0.299000,0.060000,-0.298000,0.063000,-0.298000,0.065000,-0.297000,0.068000,-0.296000,0.070000,-0.295000,0.073000,-0.293000,0.075000,
-0.292000,0.077000,-0.290000,0.079000,-0.289000,0.081000,-0.281000,0.089000,-0.279000,0.090000,-0.277000,0.092000,-0.275000,0.093000,-0.273000,0.095000,-0.270000,0.096000,-0.268000,0.097000,-0.265000,0.098000,-0.263000,0.098000,-0.260000,0.099000,-0.258000,0.099000,-0.255000,0.100000,0.450000,0.100000,0.450000,0.555000,0.451000,0.558000,0.451000,0.560000,0.452000,0.563000,
0.452000,0.565000,0.453000,0.568000,0.454000,0.570000,0.455000,0.573000,0.457000,0.575000,0.458000,0.577000,0.460000,0.579000,0.461000,0.581000,0.469000,0.589000,0.471000,0.590000,0.473000,0.592000,0.475000,0.593000,0.477000,0.595000,0.480000,0.596000,0.482000,0.597000,0.485000,0.598000,0.487000,0.598000,0.490000,0.599000,0.492000,0.599000,0.495000,0.600000,
0.605000,0.600000,0.608000,0.599000,0.608000,0.599000,$1*%
%AMFreePoly1*
4,1,122,0.058000,0.349000,0.060000,0.349000,0.063000,0.348000,0.065000,0.348000,0.068000,0.347000,0.070000,0.346000,0.073000,0.345000,0.075000,0.343000,0.077000,0.342000,0.079000,0.340000,0.081000,0.339000,0.089000,0.331000,0.090000,0.329000,0.092000,0.327000,0.093000,0.325000,0.095000,0.323000,0.096000,0.320000,0.097000,0.318000,0.098000,0.315000,0.098000,0.313000,
0.099000,0.310000,0.099000,0.308000,0.100000,0.305000,0.100000,-0.305000,0.099000,-0.308000,0.099000,-0.310000,0.098000,-0.313000,0.098000,-0.315000,0.097000,-0.318000,0.096000,-0.320000,0.095000,-0.323000,0.093000,-0.325000,0.092000,-0.327000,0.090000,-0.329000,0.089000,-0.331000,0.081000,-0.339000,0.079000,-0.340000,0.077000,-0.342000,0.075000,-0.343000,0.073000,-0.345000,
0.070000,-0.346000,0.068000,-0.347000,0.065000,-0.348000,0.063000,-0.348000,0.060000,-0.349000,0.058000,-0.349000,0.055000,-0.350000,-0.055000,-0.350000,-0.058000,-0.349000,-0.060000,-0.349000,-0.063000,-0.348000,-0.065000,-0.348000,-0.068000,-0.347000,-0.070000,-0.346000,-0.073000,-0.345000,-0.075000,-0.343000,-0.077000,-0.342000,-0.079000,-0.340000,-0.081000,-0.339000,-0.089000,-0.331000,
-0.090000,-0.329000,-0.092000,-0.327000,-0.093000,-0.325000,-0.095000,-0.323000,-0.096000,-0.320000,-0.097000,-0.318000,-0.098000,-0.315000,-0.098000,-0.313000,-0.099000,-0.310000,-0.099000,-0.308000,-0.100000,-0.305000,-0.100000,0.150000,-0.755000,0.150000,-0.758000,0.151000,-0.760000,0.151000,-0.763000,0.152000,-0.765000,0.152000,-0.768000,0.153000,-0.770000,0.154000,-0.773000,0.155000,
-0.775000,0.157000,-0.777000,0.158000,-0.779000,0.160000,-0.781000,0.161000,-0.789000,0.169000,-0.790000,0.171000,-0.792000,0.173000,-0.793000,0.175000,-0.795000,0.177000,-0.796000,0.180000,-0.797000,0.182000,-0.798000,0.185000,-0.798000,0.187000,-0.799000,0.190000,-0.799000,0.192000,-0.800000,0.195000,-0.800000,0.305000,-0.799000,0.308000,-0.799000,0.310000,-0.798000,0.313000,
-0.798000,0.315000,-0.797000,0.318000,-0.796000,0.320000,-0.795000,0.323000,-0.793000,0.325000,-0.792000,0.327000,-0.790000,0.329000,-0.789000,0.331000,-0.781000,0.339000,-0.779000,0.340000,-0.777000,0.342000,-0.775000,0.343000,-0.773000,0.345000,-0.770000,0.346000,-0.768000,0.347000,-0.765000,0.348000,-0.763000,0.348000,-0.760000,0.349000,-0.758000,0.349000,-0.755000,0.350000,
0.055000,0.350000,0.058000,0.349000,0.058000,0.349000,$1*%
%AMFreePoly2*
4,1,122,0.308000,0.099000,0.310000,0.099000,0.313000,0.098000,0.315000,0.098000,0.318000,0.097000,0.320000,0.096000,0.323000,0.095000,0.325000,0.093000,0.327000,0.092000,0.329000,0.090000,0.331000,0.089000,0.339000,0.081000,0.340000,0.079000,0.342000,0.077000,0.343000,0.075000,0.345000,0.073000,0.346000,0.070000,0.347000,0.068000,0.348000,0.065000,0.348000,0.063000,
0.349000,0.060000,0.349000,0.058000,0.350000,0.055000,0.350000,-0.055000,0.349000,-0.058000,0.349000,-0.060000,0.348000,-0.063000,0.348000,-0.065000,0.347000,-0.068000,0.346000,-0.070000,0.345000,-0.073000,0.343000,-0.075000,0.342000,-0.077000,0.340000,-0.079000,0.339000,-0.081000,0.331000,-0.089000,0.329000,-0.090000,0.327000,-0.092000,0.325000,-0.093000,0.323000,-0.095000,
0.320000,-0.096000,0.318000,-0.097000,0.315000,-0.098000,0.313000,-0.098000,0.310000,-0.099000,0.308000,-0.099000,0.305000,-0.100000,-0.350000,-0.100000,-0.350000,-0.555000,-0.351000,-0.558000,-0.351000,-0.560000,-0.352000,-0.563000,-0.352000,-0.565000,-0.353000,-0.568000,-0.354000,-0.570000,-0.355000,-0.573000,-0.357000,-0.575000,-0.358000,-0.577000,-0.360000,-0.579000,-0.361000,-0.581000,
-0.369000,-0.589000,-0.371000,-0.590000,-0.373000,-0.592000,-0.375000,-0.593000,-0.377000,-0.595000,-0.380000,-0.596000,-0.382000,-0.597000,-0.385000,-0.598000,-0.387000,-0.598000,-0.390000,-0.599000,-0.392000,-0.599000,-0.395000,-0.600000,-0.505000,-0.600000,-0.508000,-0.599000,-0.510000,-0.599000,-0.513000,-0.598000,-0.515000,-0.598000,-0.518000,-0.597000,-0.520000,-0.596000,-0.523000,-0.595000,
-0.525000,-0.593000,-0.527000,-0.592000,-0.529000,-0.590000,-0.531000,-0.589000,-0.539000,-0.581000,-0.540000,-0.579000,-0.542000,-0.577000,-0.543000,-0.575000,-0.545000,-0.573000,-0.546000,-0.570000,-0.547000,-0.568000,-0.548000,-0.565000,-0.548000,-0.563000,-0.549000,-0.560000,-0.549000,-0.558000,-0.550000,-0.555000,-0.550000,0.055000,-0.549000,0.058000,-0.549000,0.060000,-0.548000,0.063000,
-0.548000,0.065000,-0.547000,0.068000,-0.546000,0.070000,-0.545000,0.073000,-0.543000,0.075000,-0.542000,0.077000,-0.540000,0.079000,-0.539000,0.081000,-0.531000,0.089000,-0.529000,0.090000,-0.527000,0.092000,-0.525000,0.093000,-0.523000,0.095000,-0.520000,0.096000,-0.518000,0.097000,-0.515000,0.098000,-0.513000,0.098000,-0.510000,0.099000,-0.508000,0.099000,-0.505000,0.100000,
0.305000,0.100000,0.308000,0.099000,0.308000,0.099000,$1*%
%AMFreePoly3*
4,1,122,-0.454500,0.599000,-0.452500,0.599000,-0.449500,0.598000,-0.447500,0.598000,-0.444500,0.597000,-0.442500,0.596000,-0.439500,0.595000,-0.437500,0.593000,-0.435500,0.592000,-0.433500,0.590000,-0.431500,0.589000,-0.423500,0.581000,-0.422500,0.579000,-0.420500,0.577000,-0.419500,0.575000,-0.417500,0.573000,-0.416500,0.570000,-0.415500,0.568000,-0.414500,0.565000,-0.414500,0.563000,
-0.413500,0.560000,-0.413500,0.558000,-0.412500,0.555000,-0.412500,0.100000,0.292500,0.100000,0.295500,0.099000,0.297500,0.099000,0.300500,0.098000,0.302500,0.098000,0.305500,0.097000,0.307500,0.096000,0.310500,0.095000,0.312500,0.093000,0.314500,0.092000,0.316500,0.090000,0.318500,0.089000,0.326500,0.081000,0.327500,0.079000,0.329500,0.077000,0.330500,0.075000,
0.332500,0.073000,0.333500,0.070000,0.334500,0.068000,0.335500,0.065000,0.335500,0.063000,0.336500,0.060000,0.336500,0.058000,0.337500,0.055000,0.337500,-0.055000,0.336500,-0.058000,0.336500,-0.060000,0.335500,-0.063000,0.335500,-0.065000,0.334500,-0.068000,0.333500,-0.070000,0.332500,-0.073000,0.330500,-0.075000,0.329500,-0.077000,0.327500,-0.079000,0.326500,-0.081000,
0.318500,-0.089000,0.316500,-0.090000,0.314500,-0.092000,0.312500,-0.093000,0.310500,-0.095000,0.307500,-0.096000,0.305500,-0.097000,0.302500,-0.098000,0.300500,-0.098000,0.297500,-0.099000,0.295500,-0.099000,0.292500,-0.100000,-0.567500,-0.100000,-0.570500,-0.099000,-0.572500,-0.099000,-0.575500,-0.098000,-0.577500,-0.098000,-0.580500,-0.097000,-0.582500,-0.096000,-0.585500,-0.095000,
-0.587500,-0.093000,-0.589500,-0.092000,-0.591500,-0.090000,-0.593500,-0.089000,-0.601500,-0.081000,-0.602500,-0.079000,-0.604500,-0.077000,-0.605500,-0.075000,-0.607500,-0.073000,-0.608500,-0.070000,-0.609500,-0.068000,-0.610500,-0.065000,-0.610500,-0.063000,-0.611500,-0.060000,-0.611500,-0.058000,-0.612500,-0.055000,-0.612500,0.555000,-0.611500,0.558000,-0.611500,0.560000,-0.610500,0.563000,
-0.610500,0.565000,-0.609500,0.568000,-0.608500,0.570000,-0.607500,0.573000,-0.605500,0.575000,-0.604500,0.577000,-0.602500,0.579000,-0.601500,0.581000,-0.593500,0.589000,-0.591500,0.590000,-0.589500,0.592000,-0.587500,0.593000,-0.585500,0.595000,-0.582500,0.596000,-0.580500,0.597000,-0.577500,0.598000,-0.575500,0.598000,-0.572500,0.599000,-0.570500,0.599000,-0.567500,0.600000,
-0.457500,0.600000,-0.454500,0.599000,-0.454500,0.599000,$1*%
G04 Aperture macros list end*
%ADD10RoundRect,0.087500X0.250000X0.087500X-0.250000X0.087500X-0.250000X-0.087500X0.250000X-0.087500X0*%
%ADD11RoundRect,0.225000X-0.225000X-0.250000X0.225000X-0.250000X0.225000X0.250000X-0.225000X0.250000X0*%
%ADD12RoundRect,0.150000X0.512500X0.150000X-0.512500X0.150000X-0.512500X-0.150000X0.512500X-0.150000X0*%
%ADD13RoundRect,0.200000X-0.200000X-0.275000X0.200000X-0.275000X0.200000X0.275000X-0.200000X0.275000X0*%
%ADD14R,1.500000X3.600000*%
%ADD15RoundRect,0.250000X-0.325000X-1.100000X0.325000X-1.100000X0.325000X1.100000X-0.325000X1.100000X0*%
%ADD16RoundRect,0.225000X-0.250000X0.225000X-0.250000X-0.225000X0.250000X-0.225000X0.250000X0.225000X0*%
%ADD17R,2.600000X0.300000*%
%ADD18RoundRect,0.250000X-0.375000X-0.625000X0.375000X-0.625000X0.375000X0.625000X-0.375000X0.625000X0*%
%ADD19RoundRect,0.250000X-0.712500X-2.475000X0.712500X-2.475000X0.712500X2.475000X-0.712500X2.475000X0*%
%ADD20RoundRect,0.050000X-0.300000X0.050000X-0.300000X-0.050000X0.300000X-0.050000X0.300000X0.050000X0*%
%ADD21RoundRect,0.999000X0.501000X1.751000X-0.501000X1.751000X-0.501000X-1.751000X0.501000X-1.751000X0*%
%ADD22RoundRect,0.250000X0.475000X-0.250000X0.475000X0.250000X-0.475000X0.250000X-0.475000X-0.250000X0*%
%ADD23RoundRect,0.087500X0.150000X0.087500X-0.150000X0.087500X-0.150000X-0.087500X0.150000X-0.087500X0*%
%ADD24RoundRect,0.050000X0.262500X0.050000X-0.262500X0.050000X-0.262500X-0.050000X0.262500X-0.050000X0*%
%ADD25RoundRect,0.062500X0.162500X0.062500X-0.162500X0.062500X-0.162500X-0.062500X0.162500X-0.062500X0*%
%ADD26RoundRect,0.218750X0.218750X0.256250X-0.218750X0.256250X-0.218750X-0.256250X0.218750X-0.256250X0*%
%ADD27RoundRect,0.075000X-0.200000X0.075000X-0.200000X-0.075000X0.200000X-0.075000X0.200000X0.075000X0*%
%ADD28RoundRect,0.999000X-0.501000X-1.751000X0.501000X-1.751000X0.501000X1.751000X-0.501000X1.751000X0*%
%ADD29RoundRect,0.250000X-0.475000X0.250000X-0.475000X-0.250000X0.475000X-0.250000X0.475000X0.250000X0*%
%ADD30R,0.750000X1.000000*%
%ADD31RoundRect,0.150000X-0.150000X-0.425000X0.150000X-0.425000X0.150000X0.425000X-0.150000X0.425000X0*%
%ADD32RoundRect,0.075000X-0.075000X-0.500000X0.075000X-0.500000X0.075000X0.500000X-0.075000X0.500000X0*%
%ADD33O,1.000000X2.100000*%
%ADD34O,1.000000X1.800000*%
%ADD35RoundRect,0.200000X0.275000X-0.200000X0.275000X0.200000X-0.275000X0.200000X-0.275000X-0.200000X0*%
%ADD36RoundRect,0.075000X-0.075000X-0.200000X0.075000X-0.200000X0.075000X0.200000X-0.075000X0.200000X0*%
%ADD37RoundRect,0.200000X-0.275000X0.200000X-0.275000X-0.200000X0.275000X-0.200000X0.275000X0.200000X0*%
%ADD38RoundRect,0.250000X-0.250000X-0.475000X0.250000X-0.475000X0.250000X0.475000X-0.250000X0.475000X0*%
%ADD39RoundRect,0.087500X-0.087500X0.150000X-0.087500X-0.150000X0.087500X-0.150000X0.087500X0.150000X0*%
%ADD40RoundRect,0.050000X-0.050000X0.262500X-0.050000X-0.262500X0.050000X-0.262500X0.050000X0.262500X0*%
%ADD41RoundRect,0.062500X-0.062500X0.162500X-0.062500X-0.162500X0.062500X-0.162500X0.062500X0.162500X0*%
%ADD42RoundRect,0.250000X-1.100000X0.325000X-1.100000X-0.325000X1.100000X-0.325000X1.100000X0.325000X0*%
%ADD43RoundRect,0.177500X-0.177500X-0.177500X0.177500X-0.177500X0.177500X0.177500X-0.177500X0.177500X0*%
%ADD44RoundRect,0.062500X-0.312500X-0.062500X0.312500X-0.062500X0.312500X0.062500X-0.312500X0.062500X0*%
%ADD45RoundRect,0.062500X-0.062500X-0.312500X0.062500X-0.312500X0.062500X0.312500X-0.062500X0.312500X0*%
%ADD46FreePoly0,0.000000*%
%ADD47RoundRect,0.050000X-0.250000X-0.050000X0.250000X-0.050000X0.250000X0.050000X-0.250000X0.050000X0*%
%ADD48FreePoly1,0.000000*%
%ADD49RoundRect,0.050000X-0.050000X-0.250000X0.050000X-0.250000X0.050000X0.250000X-0.050000X0.250000X0*%
%ADD50FreePoly2,0.000000*%
%ADD51RoundRect,0.050000X-0.300000X-0.050000X0.300000X-0.050000X0.300000X0.050000X-0.300000X0.050000X0*%
%ADD52RoundRect,0.050000X-0.275000X-0.050000X0.275000X-0.050000X0.275000X0.050000X-0.275000X0.050000X0*%
%ADD53RoundRect,0.050000X-0.290000X-0.050000X0.290000X-0.050000X0.290000X0.050000X-0.290000X0.050000X0*%
%ADD54FreePoly3,0.000000*%
%ADD55RoundRect,0.050000X-0.050000X-0.450000X0.050000X-0.450000X0.050000X0.450000X-0.050000X0.450000X0*%
%ADD56RoundRect,0.050000X-0.050000X-0.425000X0.050000X-0.425000X0.050000X0.425000X-0.050000X0.425000X0*%
%ADD57R,0.700000X1.200000*%
%ADD58R,1.000000X0.800000*%
%ADD59R,1.000000X1.200000*%
%ADD60R,1.000000X2.800000*%
%ADD61R,1.300000X1.900000*%
%ADD62RoundRect,0.250000X1.100000X-0.325000X1.100000X0.325000X-1.100000X0.325000X-1.100000X-0.325000X0*%
G04 APERTURE END LIST*
D10*
%TO.C,U4*%
X388500000Y-353500000D03*
X388500000Y-353000000D03*
X388500000Y-352500000D03*
X387075000Y-352500000D03*
X387075000Y-353000000D03*
X387075000Y-353500000D03*
%TD*%
D11*
%TO.C,C43*%
X371225000Y-346400000D03*
X372775000Y-346400000D03*
%TD*%
D12*
%TO.C,U11*%
X371137500Y-410550000D03*
X371137500Y-411500000D03*
X371137500Y-412450000D03*
X368862500Y-412450000D03*
X368862500Y-411500000D03*
X368862500Y-410550000D03*
%TD*%
D13*
%TO.C,R27*%
X359175000Y-343500000D03*
X360825000Y-343500000D03*
%TD*%
D14*
%TO.C,L3*%
X385525000Y-352000000D03*
X382475000Y-352000000D03*
%TD*%
D11*
%TO.C,C19*%
X383225000Y-346400000D03*
X384775000Y-346400000D03*
%TD*%
D15*
%TO.C,C48*%
X362025000Y-407600000D03*
X364975000Y-407600000D03*
%TD*%
D16*
%TO.C,C28*%
X376000000Y-363000000D03*
X376000000Y-364550000D03*
%TD*%
D17*
%TO.C,J6*%
X378053250Y-388770000D03*
X378053250Y-389270000D03*
X378053250Y-389770000D03*
X378053250Y-390270000D03*
X378053250Y-390770000D03*
X378053250Y-391270000D03*
X378053250Y-391770000D03*
X378053250Y-392270000D03*
X378053250Y-392770000D03*
X378053250Y-393270000D03*
X378053250Y-393770000D03*
X378053250Y-394270000D03*
X378053250Y-394770000D03*
X378053250Y-395270000D03*
X378053250Y-395770000D03*
X378053250Y-396270000D03*
X378053250Y-396770000D03*
X378053250Y-397270000D03*
X378053250Y-397770000D03*
%TD*%
D18*
%TO.C,F3*%
X360100000Y-400500000D03*
X362900000Y-400500000D03*
%TD*%
D19*
%TO.C,F1*%
X351535000Y-409260000D03*
X358310000Y-409260000D03*
%TD*%
D20*
%TO.C,J8*%
X388000000Y-322800000D03*
X384920000Y-322800000D03*
X388000000Y-322400000D03*
X384920000Y-322400000D03*
X388000000Y-322000000D03*
X384920000Y-322000000D03*
X388000000Y-321600000D03*
X384920000Y-321600000D03*
X388000000Y-321200000D03*
X384920000Y-321200000D03*
X388000000Y-320800000D03*
X384920000Y-320800000D03*
X388000000Y-320400000D03*
X384920000Y-320400000D03*
X388000000Y-320000000D03*
X384920000Y-320000000D03*
X388000000Y-319600000D03*
X384920000Y-319600000D03*
X388000000Y-319200000D03*
X384920000Y-319200000D03*
X388000000Y-318800000D03*
X384920000Y-318800000D03*
X388000000Y-318400000D03*
X384920000Y-318400000D03*
X388000000Y-318000000D03*
X384920000Y-318000000D03*
X388000000Y-317600000D03*
X384920000Y-317600000D03*
X388000000Y-317200000D03*
X384920000Y-317200000D03*
X388000000Y-316800000D03*
X384920000Y-316800000D03*
X388000000Y-316400000D03*
X384920000Y-316400000D03*
X388000000Y-316000000D03*
X384920000Y-316000000D03*
X388000000Y-315600000D03*
X384920000Y-315600000D03*
X388000000Y-315200000D03*
X384920000Y-315200000D03*
X388000000Y-314800000D03*
X384920000Y-314800000D03*
X388000000Y-314400000D03*
X384920000Y-314400000D03*
X388000000Y-314000000D03*
X384920000Y-314000000D03*
X388000000Y-313600000D03*
X384920000Y-313600000D03*
X388000000Y-313200000D03*
X384920000Y-313200000D03*
X388000000Y-312800000D03*
X384920000Y-312800000D03*
X388000000Y-312400000D03*
X384920000Y-312400000D03*
X388000000Y-312000000D03*
X384920000Y-312000000D03*
X388000000Y-311600000D03*
X384920000Y-311600000D03*
X388000000Y-311200000D03*
X384920000Y-311200000D03*
X388000000Y-310800000D03*
X384920000Y-310800000D03*
X388000000Y-310400000D03*
X384920000Y-310400000D03*
X388000000Y-310000000D03*
X384920000Y-310000000D03*
X388000000Y-309600000D03*
X384920000Y-309600000D03*
X388000000Y-309200000D03*
X384920000Y-309200000D03*
X388000000Y-308800000D03*
X384920000Y-308800000D03*
X388000000Y-308400000D03*
X384920000Y-308400000D03*
X388000000Y-308000000D03*
X384920000Y-308000000D03*
X388000000Y-307600000D03*
X384920000Y-307600000D03*
X388000000Y-307200000D03*
X384920000Y-307200000D03*
X388000000Y-306800000D03*
X384920000Y-306800000D03*
X388000000Y-306400000D03*
X384920000Y-306400000D03*
X388000000Y-306000000D03*
X384920000Y-306000000D03*
X388000000Y-305600000D03*
X384920000Y-305600000D03*
X388000000Y-305200000D03*
X384920000Y-305200000D03*
X388000000Y-304800000D03*
X384920000Y-304800000D03*
X388000000Y-304400000D03*
X384920000Y-304400000D03*
X388000000Y-304000000D03*
X384920000Y-304000000D03*
X388000000Y-303600000D03*
X384920000Y-303600000D03*
X388000000Y-303200000D03*
X384920000Y-303200000D03*
%TD*%
D21*
%TO.C,L2*%
X386068000Y-363205000D03*
X381068000Y-363205000D03*
%TD*%
D22*
%TO.C,C29*%
X384000000Y-358500000D03*
X384000000Y-356600000D03*
%TD*%
D23*
%TO.C,U3*%
X378675000Y-367050000D03*
X378675000Y-365950000D03*
D24*
X378599500Y-366500000D03*
D23*
X378000000Y-367050000D03*
X378000000Y-365950000D03*
D24*
X377774000Y-366500000D03*
D25*
X376737000Y-365750000D03*
X376737000Y-366250000D03*
X376737000Y-366750000D03*
X376737000Y-367250000D03*
%TD*%
D26*
%TO.C,D5*%
X370287500Y-281000000D03*
X368712500Y-281000000D03*
%TD*%
D27*
%TO.C,U14*%
X382500000Y-392500000D03*
X382500000Y-393000000D03*
X382500000Y-393500000D03*
X382500000Y-394000000D03*
X382500000Y-394500000D03*
X381730000Y-394500000D03*
X381730000Y-394000000D03*
X381730000Y-393500000D03*
X381730000Y-393000000D03*
X381730000Y-392500000D03*
%TD*%
D13*
%TO.C,R20*%
X355375000Y-340600000D03*
X357025000Y-340600000D03*
%TD*%
D28*
%TO.C,L1*%
X352000000Y-402500000D03*
X357000000Y-402500000D03*
%TD*%
D29*
%TO.C,C35*%
X386500000Y-346550000D03*
X386500000Y-348450000D03*
%TD*%
D27*
%TO.C,U15*%
X382500000Y-399000000D03*
X382500000Y-399500000D03*
X382500000Y-400000000D03*
X382500000Y-400500000D03*
X382500000Y-401000000D03*
X381730000Y-401000000D03*
X381730000Y-400500000D03*
X381730000Y-400000000D03*
X381730000Y-399500000D03*
X381730000Y-399000000D03*
%TD*%
D13*
%TO.C,R22*%
X362975000Y-340600000D03*
X364625000Y-340600000D03*
%TD*%
D11*
%TO.C,C32*%
X380450000Y-358500000D03*
X382000000Y-358500000D03*
%TD*%
D30*
%TO.C,SW4*%
X381625000Y-275000000D03*
X381625000Y-269000000D03*
X385375000Y-275000000D03*
X385375000Y-269000000D03*
%TD*%
D13*
%TO.C,R26*%
X355375000Y-343500000D03*
X357025000Y-343500000D03*
%TD*%
D31*
%TO.C,J2*%
X364260000Y-414685000D03*
X365060000Y-414685000D03*
D32*
X366210000Y-414685000D03*
X367210000Y-414685000D03*
X367710000Y-414685000D03*
X368710000Y-414685000D03*
D31*
X369860000Y-414685000D03*
X370660000Y-414685000D03*
X370660000Y-414685000D03*
X369860000Y-414685000D03*
D32*
X369210000Y-414685000D03*
X368210000Y-414685000D03*
X366710000Y-414685000D03*
X365710000Y-414685000D03*
D31*
X365060000Y-414685000D03*
X364260000Y-414685000D03*
D33*
X363140000Y-415260000D03*
D34*
X363140000Y-419440000D03*
D33*
X371780000Y-415260000D03*
D34*
X371780000Y-419440000D03*
%TD*%
D35*
%TO.C,R14*%
X388000000Y-358500000D03*
X388000000Y-356850000D03*
%TD*%
D13*
%TO.C,R24*%
X370575000Y-340600000D03*
X372225000Y-340600000D03*
%TD*%
D35*
%TO.C,R37*%
X378105000Y-279435000D03*
X378105000Y-277785000D03*
%TD*%
D13*
%TO.C,R17*%
X365300000Y-411625000D03*
X365300000Y-409975000D03*
%TD*%
D35*
%TO.C,R38*%
X369500000Y-279500000D03*
X369500000Y-277850000D03*
%TD*%
D13*
%TO.C,R21*%
X359175000Y-340600000D03*
X360825000Y-340600000D03*
%TD*%
%TO.C,R16*%
X362200000Y-411625000D03*
X362200000Y-409975000D03*
%TD*%
D30*
%TO.C,SW3*%
X372625000Y-275000000D03*
X372625000Y-269000000D03*
X376375000Y-275000000D03*
X376375000Y-269000000D03*
%TD*%
D36*
%TO.C,U6*%
X376010000Y-403000000D03*
X376510000Y-403000000D03*
X377010000Y-403000000D03*
X377510000Y-403000000D03*
X378010000Y-403000000D03*
X378010000Y-402230000D03*
X377510000Y-402230000D03*
X377010000Y-402230000D03*
X376510000Y-402230000D03*
X376010000Y-402230000D03*
%TD*%
D27*
%TO.C,U13*%
X381885000Y-385000000D03*
X381885000Y-385500000D03*
X381885000Y-386000000D03*
X381885000Y-386500000D03*
X381885000Y-387000000D03*
X381115000Y-387000000D03*
X381115000Y-386500000D03*
X381115000Y-386000000D03*
X381115000Y-385500000D03*
X381115000Y-385000000D03*
%TD*%
D13*
%TO.C,R34*%
X366775000Y-346400000D03*
X368425000Y-346400000D03*
%TD*%
D35*
%TO.C,R15*%
X386000000Y-358500000D03*
X386000000Y-356850000D03*
%TD*%
D37*
%TO.C,R39*%
X360342500Y-277635000D03*
X360342500Y-279285000D03*
%TD*%
D13*
%TO.C,R29*%
X366775000Y-343500000D03*
X368425000Y-343500000D03*
%TD*%
D38*
%TO.C,C39*%
X361550000Y-403000000D03*
X363450000Y-403000000D03*
%TD*%
D39*
%TO.C,U7*%
X383300000Y-376487000D03*
X382200000Y-376487000D03*
D40*
X382750000Y-376562500D03*
D39*
X383300000Y-377162000D03*
X382200000Y-377162000D03*
D40*
X382750000Y-377388000D03*
D41*
X382000000Y-378425000D03*
X382500000Y-378425000D03*
X383000000Y-378425000D03*
X383500000Y-378425000D03*
%TD*%
D42*
%TO.C,C23*%
X365500000Y-376550000D03*
X365500000Y-379500000D03*
%TD*%
D26*
%TO.C,D4*%
X378922500Y-281040000D03*
X377347500Y-281040000D03*
%TD*%
D36*
%TO.C,U5*%
X381500000Y-403385000D03*
X382000000Y-403385000D03*
X382500000Y-403385000D03*
X383000000Y-403385000D03*
X383500000Y-403385000D03*
X383500000Y-402615000D03*
X383000000Y-402615000D03*
X382500000Y-402615000D03*
X382000000Y-402615000D03*
X381500000Y-402615000D03*
%TD*%
D13*
%TO.C,R19*%
X351575000Y-340600000D03*
X353225000Y-340600000D03*
%TD*%
%TO.C,R23*%
X366775000Y-340600000D03*
X368425000Y-340600000D03*
%TD*%
D11*
%TO.C,C34*%
X371225000Y-343500000D03*
X372775000Y-343500000D03*
%TD*%
D30*
%TO.C,SW1*%
X353625000Y-275000000D03*
X353625000Y-269000000D03*
X357375000Y-275000000D03*
X357375000Y-269000000D03*
%TD*%
D38*
%TO.C,C30*%
X380050000Y-355500000D03*
X381950000Y-355500000D03*
%TD*%
D13*
%TO.C,R28*%
X362975000Y-343500000D03*
X364625000Y-343500000D03*
%TD*%
D38*
%TO.C,C40*%
X365650000Y-403000000D03*
X367550000Y-403000000D03*
%TD*%
D11*
%TO.C,C38*%
X380725000Y-343500000D03*
X382275000Y-343500000D03*
%TD*%
%TO.C,C36*%
X374225000Y-343500000D03*
X375775000Y-343500000D03*
%TD*%
D19*
%TO.C,F2*%
X351612500Y-382420000D03*
X358387500Y-382420000D03*
%TD*%
D43*
%TO.C,U1*%
X363990000Y-394460000D03*
X363990000Y-395340000D03*
X364870000Y-394460000D03*
X364870000Y-395340000D03*
D44*
X362955000Y-394150000D03*
X362955000Y-394650000D03*
X362955000Y-395150000D03*
X362955000Y-395650000D03*
D45*
X363680000Y-396375000D03*
X364180000Y-396375000D03*
X364680000Y-396375000D03*
X365180000Y-396375000D03*
D44*
X365905000Y-395650000D03*
X365905000Y-395150000D03*
X365905000Y-394650000D03*
X365905000Y-394150000D03*
D45*
X365180000Y-393425000D03*
X364680000Y-393425000D03*
X364180000Y-393425000D03*
X363680000Y-393425000D03*
%TD*%
D38*
%TO.C,C33*%
X372450000Y-401000000D03*
X374350000Y-401000000D03*
%TD*%
D21*
%TO.C,L4*%
X386000000Y-372000000D03*
X381000000Y-372000000D03*
%TD*%
D13*
%TO.C,R30*%
X351575000Y-346400000D03*
X353225000Y-346400000D03*
%TD*%
D11*
%TO.C,C44*%
X374225000Y-346400000D03*
X375775000Y-346400000D03*
%TD*%
D31*
%TO.C,J1*%
X352230000Y-414685000D03*
X353030000Y-414685000D03*
D32*
X354180000Y-414685000D03*
X355180000Y-414685000D03*
X355680000Y-414685000D03*
X356680000Y-414685000D03*
D31*
X357830000Y-414685000D03*
X358630000Y-414685000D03*
X358630000Y-414685000D03*
X357830000Y-414685000D03*
D32*
X357180000Y-414685000D03*
X356180000Y-414685000D03*
X354680000Y-414685000D03*
X353680000Y-414685000D03*
D31*
X353030000Y-414685000D03*
X352230000Y-414685000D03*
D33*
X351110000Y-415260000D03*
D34*
X351110000Y-419440000D03*
D33*
X359750000Y-415260000D03*
D34*
X359750000Y-419440000D03*
%TD*%
D13*
%TO.C,R32*%
X359175000Y-346400000D03*
X360825000Y-346400000D03*
%TD*%
D30*
%TO.C,SW2*%
X363125000Y-275000000D03*
X363125000Y-269000000D03*
X366875000Y-275000000D03*
X366875000Y-269000000D03*
%TD*%
D13*
%TO.C,R31*%
X355375000Y-346400000D03*
X357025000Y-346400000D03*
%TD*%
D20*
%TO.C,J7*%
X354080000Y-322800000D03*
X351000000Y-322800000D03*
X354080000Y-322400000D03*
X351000000Y-322400000D03*
X354080000Y-322000000D03*
X351000000Y-322000000D03*
X354080000Y-321600000D03*
X351000000Y-321600000D03*
X354080000Y-321200000D03*
X351000000Y-321200000D03*
X354080000Y-320800000D03*
X351000000Y-320800000D03*
X354080000Y-320400000D03*
X351000000Y-320400000D03*
X354080000Y-320000000D03*
X351000000Y-320000000D03*
X354080000Y-319600000D03*
X351000000Y-319600000D03*
X354080000Y-319200000D03*
X351000000Y-319200000D03*
X354080000Y-318800000D03*
X351000000Y-318800000D03*
X354080000Y-318400000D03*
X351000000Y-318400000D03*
X354080000Y-318000000D03*
X351000000Y-318000000D03*
X354080000Y-317600000D03*
X351000000Y-317600000D03*
X354080000Y-317200000D03*
X351000000Y-317200000D03*
X354080000Y-316800000D03*
X351000000Y-316800000D03*
X354080000Y-316400000D03*
X351000000Y-316400000D03*
X354080000Y-316000000D03*
X351000000Y-316000000D03*
X354080000Y-315600000D03*
X351000000Y-315600000D03*
X354080000Y-315200000D03*
X351000000Y-315200000D03*
X354080000Y-314800000D03*
X351000000Y-314800000D03*
X354080000Y-314400000D03*
X351000000Y-314400000D03*
X354080000Y-314000000D03*
X351000000Y-314000000D03*
X354080000Y-313600000D03*
X351000000Y-313600000D03*
X354080000Y-313200000D03*
X351000000Y-313200000D03*
X354080000Y-312800000D03*
X351000000Y-312800000D03*
X354080000Y-312400000D03*
X351000000Y-312400000D03*
X354080000Y-312000000D03*
X351000000Y-312000000D03*
X354080000Y-311600000D03*
X351000000Y-311600000D03*
X354080000Y-311200000D03*
X351000000Y-311200000D03*
X354080000Y-310800000D03*
X351000000Y-310800000D03*
X354080000Y-310400000D03*
X351000000Y-310400000D03*
X354080000Y-310000000D03*
X351000000Y-310000000D03*
X354080000Y-309600000D03*
X351000000Y-309600000D03*
X354080000Y-309200000D03*
X351000000Y-309200000D03*
X354080000Y-308800000D03*
X351000000Y-308800000D03*
X354080000Y-308400000D03*
X351000000Y-308400000D03*
X354080000Y-308000000D03*
X351000000Y-308000000D03*
X354080000Y-307600000D03*
X351000000Y-307600000D03*
X354080000Y-307200000D03*
X351000000Y-307200000D03*
X354080000Y-306800000D03*
X351000000Y-306800000D03*
X354080000Y-306400000D03*
X351000000Y-306400000D03*
X354080000Y-306000000D03*
X351000000Y-306000000D03*
X354080000Y-305600000D03*
X351000000Y-305600000D03*
X354080000Y-305200000D03*
X351000000Y-305200000D03*
X354080000Y-304800000D03*
X351000000Y-304800000D03*
X354080000Y-304400000D03*
X351000000Y-304400000D03*
X354080000Y-304000000D03*
X351000000Y-304000000D03*
X354080000Y-303600000D03*
X351000000Y-303600000D03*
X354080000Y-303200000D03*
X351000000Y-303200000D03*
%TD*%
D13*
%TO.C,R25*%
X351575000Y-343500000D03*
X353225000Y-343500000D03*
%TD*%
D46*
%TO.C,U2*%
X352455000Y-393150000D03*
D47*
X352455000Y-393550000D03*
X352455000Y-393950000D03*
X352455000Y-394350000D03*
X352455000Y-394750000D03*
X352455000Y-395150000D03*
X352455000Y-395550000D03*
X352455000Y-395950000D03*
D48*
X352955000Y-396600000D03*
D49*
X353355000Y-396650000D03*
X353755000Y-396650000D03*
X354155000Y-396650000D03*
X354555000Y-396650000D03*
X354955000Y-396650000D03*
X355355000Y-396650000D03*
D50*
X356205000Y-396350000D03*
D51*
X356205000Y-395950000D03*
D52*
X356230000Y-395550000D03*
D53*
X356217500Y-395150000D03*
D47*
X356255000Y-394750000D03*
X356255000Y-394350000D03*
X356255000Y-393950000D03*
X356255000Y-393550000D03*
D54*
X356217500Y-393150000D03*
D55*
X355255000Y-393050000D03*
X354805000Y-393050000D03*
X354355000Y-393050000D03*
X353905000Y-393050000D03*
D56*
X353455000Y-393025000D03*
%TD*%
D26*
%TO.C,D6*%
X361555000Y-280960000D03*
X359980000Y-280960000D03*
%TD*%
D13*
%TO.C,R33*%
X362975000Y-346400000D03*
X364625000Y-346400000D03*
%TD*%
D15*
%TO.C,C47*%
X367525000Y-407600000D03*
X370475000Y-407600000D03*
%TD*%
D29*
%TO.C,C27*%
X378000000Y-362600000D03*
X378000000Y-364500000D03*
%TD*%
D11*
%TO.C,C31*%
X368625000Y-400600000D03*
X370175000Y-400600000D03*
%TD*%
%TO.C,C37*%
X377450000Y-343500000D03*
X379000000Y-343500000D03*
%TD*%
D57*
%TO.C,J4*%
X383600000Y-405400000D03*
X382500000Y-405400000D03*
X381400000Y-405400000D03*
X380300000Y-405400000D03*
X379200000Y-405400000D03*
X378100000Y-405400000D03*
X377000000Y-405400000D03*
X375900000Y-405400000D03*
X374950000Y-405400000D03*
D58*
X374000000Y-415900000D03*
D59*
X374000000Y-409700000D03*
D60*
X374000000Y-420050000D03*
D59*
X385150000Y-405400000D03*
D61*
X387500000Y-420500000D03*
%TD*%
D62*
%TO.C,C24*%
X365500000Y-384950000D03*
X365500000Y-382000000D03*
%TD*%
M02*
