%TF.GenerationSoftware,KiCad,Pcbnew,10.0.3*%
%TF.CreationDate,2026-07-11T09:47:15+05:30*%
%TF.ProjectId,Custom Tablet,43757374-6f6d-4205-9461-626c65742e6b,rev?*%
%TF.SameCoordinates,Original*%
%TF.FileFunction,Soldermask,Bot*%
%TF.FilePolarity,Negative*%
%FSLAX46Y46*%
G04 Gerber Fmt 4.6, Leading zero omitted, Abs format (unit mm)*
G04 Created by KiCad (PCBNEW 10.0.3) date 2026-07-11 09:47:16*
%MOMM*%
%LPD*%
G01*
G04 APERTURE LIST*
G04 Aperture macros list*
%AMRoundRect*
0 Rectangle with rounded corners*
0 $1 Rounding radius*
0 $2 $3 $4 $5 $6 $7 $8 $9 X,Y pos of 4 corners*
0 Add a 4 corners polygon primitive as box body*
4,1,4,$2,$3,$4,$5,$6,$7,$8,$9,$2,$3,0*
0 Add four circle primitives for the rounded corners*
1,1,$1+$1,$2,$3*
1,1,$1+$1,$4,$5*
1,1,$1+$1,$6,$7*
1,1,$1+$1,$8,$9*
0 Add four rect primitives between the rounded corners*
20,1,$1+$1,$2,$3,$4,$5,0*
20,1,$1+$1,$4,$5,$6,$7,0*
20,1,$1+$1,$6,$7,$8,$9,0*
20,1,$1+$1,$8,$9,$2,$3,0*%
G04 Aperture macros list end*
%ADD10O,3.300000X1.500000*%
%ADD11O,2.300000X1.500000*%
%ADD12C,0.650000*%
%ADD13O,1.000000X2.100000*%
%ADD14O,1.000000X1.800000*%
%ADD15RoundRect,0.250000X0.825000X-0.825000X0.825000X0.825000X-0.825000X0.825000X-0.825000X-0.825000X0*%
%ADD16C,2.150000*%
%ADD17RoundRect,0.225000X0.225000X0.250000X-0.225000X0.250000X-0.225000X-0.250000X0.225000X-0.250000X0*%
%ADD18RoundRect,0.250000X-0.250000X-0.475000X0.250000X-0.475000X0.250000X0.475000X-0.250000X0.475000X0*%
%ADD19RoundRect,0.200000X0.275000X-0.200000X0.275000X0.200000X-0.275000X0.200000X-0.275000X-0.200000X0*%
%ADD20RoundRect,0.250000X0.250000X0.475000X-0.250000X0.475000X-0.250000X-0.475000X0.250000X-0.475000X0*%
%ADD21RoundRect,0.200000X-0.200000X-0.275000X0.200000X-0.275000X0.200000X0.275000X-0.200000X0.275000X0*%
%ADD22RoundRect,0.200000X-0.275000X0.200000X-0.275000X-0.200000X0.275000X-0.200000X0.275000X0.200000X0*%
%ADD23RoundRect,0.150000X0.512500X0.150000X-0.512500X0.150000X-0.512500X-0.150000X0.512500X-0.150000X0*%
%ADD24RoundRect,0.225000X-0.225000X-0.250000X0.225000X-0.250000X0.225000X0.250000X-0.225000X0.250000X0*%
%ADD25C,2.000000*%
%ADD26RoundRect,0.200000X0.200000X0.275000X-0.200000X0.275000X-0.200000X-0.275000X0.200000X-0.275000X0*%
%ADD27RoundRect,0.250000X-0.475000X0.250000X-0.475000X-0.250000X0.475000X-0.250000X0.475000X0.250000X0*%
G04 APERTURE END LIST*
D10*
%TO.C,J6*%
X378783250Y-386020000D03*
X378783250Y-400520000D03*
D11*
X384743250Y-400520000D03*
X384743250Y-386020000D03*
%TD*%
D12*
%TO.C,J2*%
X364570000Y-415760000D03*
X370350000Y-415760000D03*
D13*
X363140000Y-415260000D03*
D14*
X363140000Y-419440000D03*
D13*
X371780000Y-415260000D03*
D14*
X371780000Y-419440000D03*
%TD*%
D15*
%TO.C,J3*%
X353000000Y-369000000D03*
D16*
X353000000Y-364400000D03*
%TD*%
D12*
%TO.C,J1*%
X352540000Y-415760000D03*
X358320000Y-415760000D03*
D13*
X351110000Y-415260000D03*
D14*
X351110000Y-419440000D03*
D13*
X359750000Y-415260000D03*
D14*
X359750000Y-419440000D03*
%TD*%
D17*
%TO.C,C7*%
X355050000Y-395500000D03*
X353500000Y-395500000D03*
%TD*%
D18*
%TO.C,C18*%
X365050000Y-388240000D03*
X366950000Y-388240000D03*
%TD*%
D19*
%TO.C,R7*%
X353000000Y-402000000D03*
X353000000Y-400350000D03*
%TD*%
D20*
%TO.C,C17*%
X361920000Y-388300000D03*
X360020000Y-388300000D03*
%TD*%
%TO.C,C42*%
X386143000Y-372495000D03*
X384243000Y-372495000D03*
%TD*%
D17*
%TO.C,C8*%
X365000000Y-394000000D03*
X363450000Y-394000000D03*
%TD*%
D18*
%TO.C,C21*%
X368820000Y-388000000D03*
X370720000Y-388000000D03*
%TD*%
D21*
%TO.C,R9*%
X384598000Y-365195000D03*
X386248000Y-365195000D03*
%TD*%
D20*
%TO.C,C4*%
X356310000Y-417800000D03*
X354410000Y-417800000D03*
%TD*%
D19*
%TO.C,R5*%
X358000000Y-401825000D03*
X358000000Y-400175000D03*
%TD*%
D22*
%TO.C,R4*%
X369000000Y-395010000D03*
X369000000Y-396660000D03*
%TD*%
D20*
%TO.C,C12*%
X352550000Y-381000000D03*
X350650000Y-381000000D03*
%TD*%
D23*
%TO.C,U8*%
X370195000Y-419060000D03*
X370195000Y-420010000D03*
X370195000Y-420960000D03*
X367920000Y-420960000D03*
X367920000Y-420010000D03*
X367920000Y-419060000D03*
%TD*%
D22*
%TO.C,TH1*%
X356180000Y-352540000D03*
X356180000Y-354190000D03*
%TD*%
D24*
%TO.C,C49*%
X366705000Y-413900000D03*
X368255000Y-413900000D03*
%TD*%
D25*
%TO.C,JLC_FID_BOT_2*%
X385000000Y-278000000D03*
%TD*%
D19*
%TO.C,R1*%
X356617500Y-395025000D03*
X356617500Y-393375000D03*
%TD*%
D26*
%TO.C,R2*%
X366500000Y-399500000D03*
X364850000Y-399500000D03*
%TD*%
D20*
%TO.C,C15*%
X358220000Y-387240000D03*
X356320000Y-387240000D03*
%TD*%
D27*
%TO.C,C2*%
X356100000Y-372390000D03*
X356100000Y-374290000D03*
%TD*%
D18*
%TO.C,C22*%
X353417500Y-397360000D03*
X355317500Y-397360000D03*
%TD*%
D19*
%TO.C,R36*%
X382143000Y-374470000D03*
X382143000Y-372820000D03*
%TD*%
D26*
%TO.C,R10*%
X382908000Y-365135000D03*
X381258000Y-365135000D03*
%TD*%
D20*
%TO.C,C14*%
X358660000Y-385050000D03*
X356760000Y-385050000D03*
%TD*%
D19*
%TO.C,R6*%
X355500000Y-402500000D03*
X355500000Y-400850000D03*
%TD*%
D27*
%TO.C,C41*%
X381990000Y-369140000D03*
X381990000Y-371040000D03*
%TD*%
D19*
%TO.C,R8*%
X350940000Y-401825000D03*
X350940000Y-400175000D03*
%TD*%
D27*
%TO.C,C1*%
X356080000Y-376320572D03*
X356080000Y-378220572D03*
%TD*%
D20*
%TO.C,C11*%
X354630000Y-387410000D03*
X352730000Y-387410000D03*
%TD*%
%TO.C,C3*%
X356300000Y-414610000D03*
X354400000Y-414610000D03*
%TD*%
D25*
%TO.C,JLC_FID_BOT_1*%
X352000000Y-278000000D03*
%TD*%
D17*
%TO.C,C9*%
X365000000Y-395680000D03*
X363450000Y-395680000D03*
%TD*%
%TO.C,C13*%
X352775000Y-390000000D03*
X351225000Y-390000000D03*
%TD*%
D20*
%TO.C,C16*%
X362500000Y-384830000D03*
X360600000Y-384830000D03*
%TD*%
%TO.C,C25*%
X382783000Y-361115000D03*
X380883000Y-361115000D03*
%TD*%
D17*
%TO.C,C5*%
X356025000Y-420970000D03*
X354475000Y-420970000D03*
%TD*%
D21*
%TO.C,R35*%
X384328000Y-374615000D03*
X385978000Y-374615000D03*
%TD*%
D20*
%TO.C,C10*%
X355090000Y-385120000D03*
X353190000Y-385120000D03*
%TD*%
D24*
%TO.C,C6*%
X352950000Y-394000000D03*
X354500000Y-394000000D03*
%TD*%
D20*
%TO.C,C26*%
X382853000Y-363175000D03*
X380953000Y-363175000D03*
%TD*%
D22*
%TO.C,R3*%
X369000000Y-391350000D03*
X369000000Y-393000000D03*
%TD*%
D21*
%TO.C,R18*%
X368400000Y-411625000D03*
X368400000Y-409975000D03*
%TD*%
D25*
%TO.C,JLC_FID_BOT_3*%
X385000000Y-418500000D03*
%TD*%
M02*
