M48
; DRILL file KiCad 10.0.3 date 2026-07-11T09:47:20
; FORMAT={-:-/ absolute / metric / decimal}
; #@! TF.CreationDate,2026-07-11T09:47:20+05:30
; #@! TF.GenerationSoftware,Kicad,Pcbnew,10.0.3
; #@! TF.FileFunction,Plated,1,4,PTH
FMAT,2
METRIC
; #@! TA.AperFunction,Plated,PTH,ViaDrill
T1C0.200
; #@! TA.AperFunction,Plated,PTH,ViaDrill
T2C0.300
; #@! TA.AperFunction,Plated,PTH,ViaDrill
T3C0.350
; #@! TA.AperFunction,Plated,PTH,ViaDrill
T4C0.400
; #@! TA.AperFunction,Plated,PTH,ViaDrill
T5C0.500
; #@! TA.AperFunction,Plated,PTH,ComponentDrill
T6C0.600
; #@! TA.AperFunction,Plated,PTH,ComponentDrill
T7C0.900
; #@! TA.AperFunction,Plated,PTH,ComponentDrill
T8C1.150
%
G90
G05
T1
X353.5Y-394.675
X354.049Y-394.712
X354.31Y-396.014
X354.324Y-397.258
X355.456Y-393.989
X355.55Y-394.739
X377.117Y-404.042
X379.566Y-392.22
X380.0Y-390.796
X380.5Y-393.483
X382.527Y-404.272
T2
X349.95Y-301.387
X350.0Y-307.0
X350.36Y-300.928
X350.921Y-397.554
X350.979Y-399.391
X351.0Y-393.0
X351.0Y-396.5
X351.5Y-345.5
X351.5Y-392.0
X351.575Y-344.5
X351.626Y-341.874
X351.629Y-338.652
X351.813Y-389.181
X351.9Y-318.253
X352.0Y-338.0
X352.45Y-316.531
X352.55Y-306.0
X352.58Y-313.0
X352.585Y-399.301
X352.603Y-310.548
X352.668Y-397.413
X352.962Y-392.037
X353.0Y-349.5
X353.5Y-284.0
X353.56Y-416.0
X353.625Y-269.65
X353.625Y-274.35
X353.674Y-383.326
X354.301Y-340.301
X354.472Y-400.972
X354.5Y-346.4
X354.5Y-405.0
X354.724Y-399.556
X355.0Y-316.0
X355.0Y-318.0
X355.299Y-344.5
X355.597Y-392.0
X356.267Y-398.15
X356.32Y-308.2
X356.5Y-313.5
X356.5Y-337.5
X356.5Y-392.0
X356.977Y-397.907
X357.0Y-352.5
X357.378Y-395.4
X357.65Y-399.3
X357.99Y-315.02
X358.0Y-340.6
X358.0Y-413.0
X358.109Y-313.669
X358.5Y-310.0
X358.639Y-313.139
X358.727Y-394.727
X359.865Y-277.635
X360.0Y-312.0
X360.0Y-344.5
X360.0Y-403.05
X360.6Y-357.5
X360.934Y-392.934
X360.95Y-285.283
X360.98Y-397.85
X361.0Y-388.3
X361.0Y-399.0
X361.5Y-308.5
X361.5Y-309.5
X361.5Y-340.5
X361.53Y-398.45
X362.0Y-401.5
X362.046Y-391.696
X362.364Y-397.85
X362.975Y-344.475
X363.0Y-405.5
X363.027Y-398.2
X363.125Y-269.65
X363.125Y-274.35
X363.125Y-275.0
X363.45Y-404.5
X363.5Y-407.6
X363.5Y-411.625
X363.68Y-392.68
X364.0Y-387.0
X364.0Y-399.65
X364.5Y-339.5
X365.3Y-413.425
X365.5Y-374.5
X365.5Y-385.0
X366.0Y-388.24
X366.0Y-393.0
X366.0Y-401.5
X366.5Y-344.5
X366.5Y-420.01
X366.569Y-395.087
X367.0Y-392.0
X367.0Y-400.5
X367.01Y-397.0
X367.5Y-342.5
X367.917Y-380.016
X368.35Y-386.75
X368.5Y-347.5
X368.5Y-416.0
X369.0Y-407.5
X369.394Y-281.894
X370.05Y-348.0
X370.195Y-418.0
X370.215Y-277.785
X370.399Y-386.601
X370.837Y-294.743
X371.0Y-391.73
X371.233Y-275.0
X371.5Y-399.0
X371.5Y-401.5
X372.0Y-374.0
X372.105Y-421.0
X372.225Y-327.5
X372.359Y-322.641
X372.5Y-344.5
X372.625Y-269.65
X372.625Y-274.35
X373.0Y-379.0
X373.0Y-393.0
X373.005Y-375.995
X373.3Y-410.872
X373.375Y-352.515
X373.5Y-398.5
X373.624Y-363.174
X373.79Y-341.932
X374.15Y-389.196
X374.225Y-347.5
X374.225Y-358.895
X374.5Y-372.0
X374.5Y-388.0
X374.739Y-392.232
X374.79Y-361.21
X374.916Y-362.06
X375.05Y-375.35
X375.337Y-355.793
X375.45Y-397.621
X375.5Y-380.286
X375.589Y-393.882
X375.596Y-394.632
X375.6Y-360.36
X375.637Y-344.5
X375.856Y-352.793
X375.9Y-404.35
X376.137Y-370.355
X377.098Y-373.502
X377.101Y-358.601
X377.361Y-376.65
X377.455Y-277.785
X377.5Y-384.5
X377.821Y-373.804
X378.198Y-363.55
X378.21Y-361.21
X378.454Y-305.8
X379.0Y-344.5
X379.0Y-380.3
X379.0Y-402.02
X379.0Y-403.999
X379.351Y-356.851
X379.9Y-397.5
X379.995Y-378.793
X380.0Y-367.95
X380.149Y-353.149
X380.333Y-404.27
X380.415Y-396.754
X380.561Y-368.8
X380.949Y-395.732
X381.0Y-399.5
X381.0Y-400.85
X381.344Y-396.904
X381.5Y-388.0
X381.625Y-269.65
X381.625Y-274.35
X381.625Y-275.65
X381.625Y-287.725
X381.625Y-288.375
X381.99Y-344.715
X382.0Y-375.35
X382.639Y-357.361
X382.71Y-268.71
X383.0Y-395.0
X383.231Y-399.55
X383.264Y-347.675
X383.361Y-354.861
X383.377Y-391.069
X383.475Y-384.707
X383.5Y-387.5
X383.518Y-398.857
X383.655Y-392.164
X383.756Y-363.175
X383.931Y-361.069
X383.975Y-352.0
X384.034Y-304.0
X384.091Y-390.839
X384.158Y-368.03
X384.231Y-348.264
X384.336Y-340.664
X384.589Y-380.661
X385.0Y-404.35
X385.139Y-388.361
X385.139Y-390.058
X385.45Y-341.0
X385.5Y-392.748
X385.5Y-379.5
X385.5Y-397.5
X385.551Y-399.391
X385.65Y-387.682
X386.2Y-380.3
X386.3Y-355.0
X386.348Y-368.0
X386.5Y-388.0
X386.85Y-310.388
X387.3Y-315.607
X387.447Y-399.0
X387.5Y-403.0
X387.65Y-347.645
X388.15Y-336.392
X388.345Y-342.198
X388.35Y-345.5
X388.35Y-341.425
X388.44Y-274.44
T3
X353.864Y-389.636
X362.5Y-386.5
T4
X352.5Y-345.0
X354.857Y-391.125
X355.828Y-388.828
X357.597Y-391.0
X358.66Y-386.0
X358.71Y-345.29
X359.142Y-397.011
X359.5Y-392.8
X360.405Y-390.996
X361.3Y-399.795
X361.409Y-400.739
X361.907Y-346.407
X365.5Y-398.3
X367.0Y-347.5
X367.01Y-394.0
X367.402Y-411.625
X367.5Y-350.0
X368.5Y-368.004
X369.403Y-398.478
X369.5Y-413.5
X371.0Y-345.45
X371.0Y-413.5
X373.0Y-366.5
X373.028Y-372.972
X373.5Y-395.5
X374.0Y-403.0
X374.124Y-404.525
X374.2Y-414.3
X375.0Y-387.0
X375.5Y-365.596
X375.5Y-367.5
X376.608Y-355.3
X376.75Y-342.5
X376.85Y-345.0
X379.0Y-356.0
X380.608Y-403.07
X381.223Y-357.696
X381.314Y-404.201
X382.1Y-408.0
X382.315Y-368.37
X382.676Y-387.709
X383.05Y-372.035
X383.294Y-367.95
X383.5Y-305.197
X383.5Y-379.275
X383.5Y-393.0
X383.5Y-404.25
X383.894Y-364.185
X384.25Y-377.0
X384.85Y-376.0
X385.0Y-344.0
X386.5Y-345.0
T5
X352.0Y-379.0
X353.0Y-347.75
X361.0Y-345.05
X365.725Y-343.45
X368.0Y-374.0
X370.873Y-394.627
X374.85Y-339.58
X384.997Y-366.508
T8
X353.0Y-364.4
X353.0Y-369.0
T6
G00X351.11Y-414.71
M15
G01X351.11Y-415.81
M16
G05
G00X351.11Y-419.04
M15
G01X351.11Y-419.84
M16
G05
G00X359.75Y-414.71
M15
G01X359.75Y-415.81
M16
G05
G00X359.75Y-419.04
M15
G01X359.75Y-419.84
M16
G05
G00X363.14Y-414.71
M15
G01X363.14Y-415.81
M16
G05
G00X363.14Y-419.04
M15
G01X363.14Y-419.84
M16
G05
G00X371.78Y-414.71
M15
G01X371.78Y-415.81
M16
G05
G00X371.78Y-419.04
M15
G01X371.78Y-419.84
M16
G05
T7
G00X377.883Y-386.02
M15
G01X379.683Y-386.02
M16
G05
G00X377.883Y-400.52
M15
G01X379.683Y-400.52
M16
G05
G00X384.343Y-386.02
M15
G01X385.143Y-386.02
M16
G05
G00X384.343Y-400.52
M15
G01X385.143Y-400.52
M16
G05
M30
